<svg xmlns="http://www.w3.org/2000/svg" viewBox="0 0 64 64">
  <circle cx="32" cy="32" r="30" fill="#0b1d3a" stroke="#ffffff" stroke-width="3"/>
  <g fill="#ffffff">
    <polygon points="32,16 39,21 36,29 28,29 25,21"/>
    <polygon points="14,28 21,24 24,32 19,39 12,36"/>
    <polygon points="50,28 57,28 56,36 49,39 44,32"/>
    <polygon points="22,46 28,40 36,40 42,46 38,53 26,53"/>
  </g>
  <g fill="none" stroke="#0b1d3a" stroke-width="1.5">
    <line x1="32" y1="16" x2="32" y2="29"/>
    <line x1="14" y1="28" x2="24" y2="32"/>
    <line x1="50" y1="28" x2="44" y2="32"/>
    <line x1="28" y1="29" x2="22" y2="46"/>
    <line x1="36" y1="29" x2="42" y2="46"/>
  </g>
</svg>
